<svg xmlns="http://www.w3.org/2000/svg" xmlns:xlink="http://www.w3.org/1999/xlink" width="500" zoomAndPan="magnify" viewBox="0 0 375 374.999991" height="500" preserveAspectRatio="xMidYMid meet" version="1.0"><defs><clipPath id="93f66dd3e4"><path d="M 46 25 L 277 25 L 277 249 L 46 249 Z M 46 25 " clip-rule="nonzero"/></clipPath><clipPath id="e751b810f0"><path d="M 109.214844 399.644531 L 7.25 51.261719 L 265.660156 -24.371094 L 367.625 324.015625 Z M 109.214844 399.644531 " clip-rule="nonzero"/></clipPath><clipPath id="a2cbc67fdc"><path d="M 109.214844 399.644531 L 7.25 51.261719 L 265.660156 -24.371094 L 367.625 324.015625 Z M 109.214844 399.644531 " clip-rule="nonzero"/></clipPath><clipPath id="5bd57aae4c"><path d="M 109.214844 399.644531 L 7.25 51.261719 L 265.660156 -24.371094 L 367.625 324.015625 Z M 109.214844 399.644531 " clip-rule="nonzero"/></clipPath><clipPath id="c476578319"><path d="M 224 191 L 347 191 L 347 315 L 224 315 Z M 224 191 " clip-rule="nonzero"/></clipPath><clipPath id="4eb28f08b1"><path d="M 109.214844 399.644531 L 7.25 51.261719 L 265.660156 -24.371094 L 367.625 324.015625 Z M 109.214844 399.644531 " clip-rule="nonzero"/></clipPath><clipPath id="f8ec7dea2b"><path d="M 109.214844 399.644531 L 7.25 51.261719 L 265.660156 -24.371094 L 367.625 324.015625 Z M 109.214844 399.644531 " clip-rule="nonzero"/></clipPath><clipPath id="8a5482052e"><path d="M 109.214844 399.644531 L 7.25 51.261719 L 265.660156 -24.371094 L 367.625 324.015625 Z M 109.214844 399.644531 " clip-rule="nonzero"/></clipPath><clipPath id="ee0ca85099"><path d="M 151 73 L 230 73 L 230 112 L 151 112 Z M 151 73 " clip-rule="nonzero"/></clipPath><clipPath id="ed3db1e701"><path d="M 109.214844 399.644531 L 7.25 51.261719 L 265.660156 -24.371094 L 367.625 324.015625 Z M 109.214844 399.644531 " clip-rule="nonzero"/></clipPath><clipPath id="1e9d329588"><path d="M 109.214844 399.644531 L 7.25 51.261719 L 265.660156 -24.371094 L 367.625 324.015625 Z M 109.214844 399.644531 " clip-rule="nonzero"/></clipPath><clipPath id="510351c288"><path d="M 109.214844 399.644531 L 7.25 51.261719 L 265.660156 -24.371094 L 367.625 324.015625 Z M 109.214844 399.644531 " clip-rule="nonzero"/></clipPath><clipPath id="95857fbaed"><path d="M 94 102 L 236 102 L 236 210 L 94 210 Z M 94 102 " clip-rule="nonzero"/></clipPath><clipPath id="6d05d6a067"><path d="M 109.214844 399.644531 L 7.25 51.261719 L 265.660156 -24.371094 L 367.625 324.015625 Z M 109.214844 399.644531 " clip-rule="nonzero"/></clipPath><clipPath id="33057ea107"><path d="M 109.214844 399.644531 L 7.25 51.261719 L 265.660156 -24.371094 L 367.625 324.015625 Z M 109.214844 399.644531 " clip-rule="nonzero"/></clipPath><clipPath id="6519a51ca9"><path d="M 109.214844 399.644531 L 7.25 51.261719 L 265.660156 -24.371094 L 367.625 324.015625 Z M 109.214844 399.644531 " clip-rule="nonzero"/></clipPath><clipPath id="af417bd74f"><path d="M 42 21 L 169 21 L 169 143 L 42 143 Z M 42 21 " clip-rule="nonzero"/></clipPath><clipPath id="4ce661eeca"><path d="M 109.214844 399.644531 L 7.25 51.261719 L 265.660156 -24.371094 L 367.625 324.015625 Z M 109.214844 399.644531 " clip-rule="nonzero"/></clipPath><clipPath id="36ba9ba80c"><path d="M 109.214844 399.644531 L 7.25 51.261719 L 265.660156 -24.371094 L 367.625 324.015625 Z M 109.214844 399.644531 " clip-rule="nonzero"/></clipPath><clipPath id="09a946d832"><path d="M 109.214844 399.644531 L 7.25 51.261719 L 265.660156 -24.371094 L 367.625 324.015625 Z M 109.214844 399.644531 " clip-rule="nonzero"/></clipPath><clipPath id="e0694248bb"><path d="M 115 79 L 281 79 L 281 255 L 115 255 Z M 115 79 " clip-rule="nonzero"/></clipPath><clipPath id="65ca43c350"><path d="M 109.214844 399.644531 L 7.25 51.261719 L 265.660156 -24.371094 L 367.625 324.015625 Z M 109.214844 399.644531 " clip-rule="nonzero"/></clipPath><clipPath id="4de82014a2"><path d="M 109.214844 399.644531 L 7.25 51.261719 L 265.660156 -24.371094 L 367.625 324.015625 Z M 109.214844 399.644531 " clip-rule="nonzero"/></clipPath><clipPath id="6b7c1ea95a"><path d="M 109.214844 399.644531 L 7.25 51.261719 L 265.660156 -24.371094 L 367.625 324.015625 Z M 109.214844 399.644531 " clip-rule="nonzero"/></clipPath><clipPath id="a2b2e8f665"><path d="M 224 188 L 359 188 L 359 327 L 224 327 Z M 224 188 " clip-rule="nonzero"/></clipPath><clipPath id="1537455759"><path d="M 109.214844 399.644531 L 7.25 51.261719 L 265.660156 -24.371094 L 367.625 324.015625 Z M 109.214844 399.644531 " clip-rule="nonzero"/></clipPath><clipPath id="5b7c65674f"><path d="M 109.214844 399.644531 L 7.25 51.261719 L 265.660156 -24.371094 L 367.625 324.015625 Z M 109.214844 399.644531 " clip-rule="nonzero"/></clipPath><clipPath id="6727ced567"><path d="M 109.214844 399.644531 L 7.25 51.261719 L 265.660156 -24.371094 L 367.625 324.015625 Z M 109.214844 399.644531 " clip-rule="nonzero"/></clipPath></defs><rect x="-37.5" width="450" fill="#ffffff" y="-37.499999" height="449.999989" fill-opacity="1"/><rect x="-37.5" width="450" fill="#ffffff" y="-37.499999" height="449.999989" fill-opacity="1"/><g clip-path="url(#93f66dd3e4)"><g clip-path="url(#e751b810f0)"><g clip-path="url(#a2cbc67fdc)"><g clip-path="url(#5bd57aae4c)"><path fill="#ed5f72" d="M 131.308594 183.417969 L 127.460938 186.167969 C 100.960938 252.601562 154.046875 256.28125 184.765625 241.453125 C 194.730469 237.640625 204.191406 232.835938 213.152344 227.042969 C 222.113281 221.253906 230.378906 214.59375 237.945312 207.074219 C 296.132812 150.277344 288.5625 53.726562 211.433594 93.492188 L 204.597656 97.84375 L 157.957031 78.492188 C 169.234375 44.328125 162.144531 6.425781 107.359375 35.433594 C 47.167969 82.597656 39.320312 115.464844 51.175781 129.429688 C 60.023438 139.816406 80.035156 138.824219 96.867188 130.394531 Z M 131.308594 183.417969 " fill-opacity="1" fill-rule="evenodd"/></g></g></g></g><g clip-path="url(#c476578319)"><g clip-path="url(#4eb28f08b1)"><g clip-path="url(#f8ec7dea2b)"><g clip-path="url(#8a5482052e)"><path fill="#e6e6e6" d="M 250.980469 191.484375 L 224.761719 219.316406 L 346.070312 314.984375 Z M 250.980469 191.484375 " fill-opacity="1" fill-rule="evenodd"/></g></g></g></g><g clip-path="url(#ee0ca85099)"><g clip-path="url(#ed3db1e701)"><g clip-path="url(#1e9d329588)"><g clip-path="url(#510351c288)"><path fill="#540c2c" d="M 157.3125 73.746094 C 180.414062 83.300781 203.402344 93.863281 226.695312 102.808594 C 226.96875 102.902344 227.226562 103.019531 227.476562 103.164062 C 227.722656 103.308594 227.953125 103.476562 228.167969 103.667969 C 228.382812 103.855469 228.574219 104.066406 228.746094 104.296875 C 228.917969 104.527344 229.066406 104.769531 229.1875 105.03125 C 229.308594 105.289062 229.40625 105.558594 229.472656 105.835938 C 229.542969 106.113281 229.582031 106.394531 229.597656 106.683594 C 229.609375 106.96875 229.589844 107.253906 229.546875 107.535156 C 229.5 107.820312 229.429688 108.09375 229.328125 108.363281 C 229.222656 108.636719 229.09375 108.894531 228.941406 109.144531 C 228.789062 109.390625 228.613281 109.621094 228.414062 109.835938 C 228.214844 110.046875 228 110.242188 227.761719 110.410156 C 227.527344 110.582031 227.277344 110.730469 227.015625 110.855469 C 226.75 110.976562 226.476562 111.074219 226.195312 111.144531 C 225.910156 111.214844 225.625 111.257812 225.332031 111.269531 C 225.042969 111.285156 224.753906 111.273438 224.464844 111.230469 C 224.175781 111.1875 223.894531 111.121094 223.621094 111.023438 C 200.199219 102.035156 177.117188 91.433594 153.90625 81.832031 C 153.640625 81.730469 153.382812 81.601562 153.140625 81.449219 C 152.898438 81.292969 152.675781 81.117188 152.46875 80.917969 C 152.261719 80.71875 152.078125 80.503906 151.917969 80.265625 C 151.753906 80.03125 151.617188 79.78125 151.503906 79.515625 C 151.390625 79.25 151.308594 78.980469 151.25 78.699219 C 151.195312 78.417969 151.164062 78.132812 151.164062 77.847656 C 151.164062 77.558594 151.195312 77.277344 151.25 76.996094 C 151.308594 76.714844 151.394531 76.441406 151.507812 76.175781 C 151.621094 75.914062 151.761719 75.660156 151.925781 75.421875 C 152.085938 75.183594 152.273438 74.964844 152.476562 74.761719 C 152.683594 74.558594 152.90625 74.375 153.148438 74.214844 C 153.386719 74.054688 153.640625 73.917969 153.910156 73.808594 C 154.175781 73.695312 154.449219 73.609375 154.734375 73.550781 C 155.015625 73.492188 155.300781 73.460938 155.589844 73.457031 C 155.878906 73.453125 156.167969 73.472656 156.453125 73.523438 C 156.738281 73.574219 157.015625 73.652344 157.285156 73.757812 " fill-opacity="1" fill-rule="evenodd"/></g></g></g></g><g clip-path="url(#95857fbaed)"><g clip-path="url(#6d05d6a067)"><g clip-path="url(#33057ea107)"><g clip-path="url(#6519a51ca9)"><path fill="#540c2c" d="M 102.464844 128.191406 C 117.5625 152.070312 131.421875 176.378906 147.164062 199.910156 C 179.796875 208.410156 245.707031 139.394531 221.886719 109.925781 C 221.6875 109.714844 221.515625 109.492188 221.363281 109.246094 C 221.210938 109.003906 221.082031 108.746094 220.984375 108.476562 C 220.882812 108.207031 220.808594 107.933594 220.765625 107.648438 C 220.71875 107.363281 220.703125 107.078125 220.714844 106.792969 C 220.726562 106.503906 220.765625 106.222656 220.835938 105.941406 C 220.90625 105.664062 221 105.394531 221.121094 105.136719 C 221.246094 104.875 221.394531 104.628906 221.566406 104.398438 C 221.738281 104.171875 221.929688 103.960938 222.144531 103.769531 C 222.359375 103.570312 222.589844 103.394531 222.835938 103.242188 C 223.082031 103.089844 223.34375 102.964844 223.613281 102.863281 C 223.886719 102.761719 224.167969 102.683594 224.453125 102.636719 C 224.738281 102.589844 225.027344 102.570312 225.320312 102.578125 C 225.609375 102.585938 225.894531 102.621094 226.179688 102.683594 C 226.464844 102.75 226.738281 102.839844 227.003906 102.957031 C 227.269531 103.074219 227.523438 103.214844 227.761719 103.378906 C 228 103.546875 228.21875 103.734375 228.421875 103.941406 C 260.414062 143.539062 179.171875 222.621094 142.539062 207.65625 C 138.277344 205.902344 101.113281 142.582031 95.042969 132.925781 C 94.886719 132.683594 94.757812 132.425781 94.652344 132.160156 C 94.546875 131.890625 94.46875 131.617188 94.417969 131.332031 C 94.367188 131.050781 94.347656 130.761719 94.355469 130.476562 C 94.359375 130.1875 94.394531 129.902344 94.460938 129.625 C 94.523438 129.34375 94.613281 129.070312 94.730469 128.808594 C 94.851562 128.546875 94.992188 128.296875 95.160156 128.0625 C 95.328125 127.828125 95.515625 127.613281 95.726562 127.417969 C 95.9375 127.222656 96.164062 127.046875 96.410156 126.898438 C 96.652344 126.738281 96.910156 126.609375 97.179688 126.5 C 97.449219 126.394531 97.726562 126.3125 98.011719 126.261719 C 98.296875 126.207031 98.582031 126.183594 98.871094 126.1875 C 99.164062 126.1875 99.449219 126.21875 99.734375 126.277344 C 100.015625 126.339844 100.292969 126.421875 100.558594 126.535156 C 100.828125 126.648438 101.082031 126.785156 101.320312 126.949219 C 101.5625 127.109375 101.785156 127.292969 101.988281 127.5 C 102.195312 127.703125 102.375 127.925781 102.539062 128.167969 " fill-opacity="1" fill-rule="evenodd"/></g></g></g></g><g clip-path="url(#af417bd74f)"><g clip-path="url(#4ce661eeca)"><g clip-path="url(#36ba9ba80c)"><g clip-path="url(#09a946d832)"><path fill="#540c2c" d="M 50.46875 135.429688 C 50.089844 135.203125 49.757812 134.929688 49.464844 134.601562 C 49.234375 134.363281 49.042969 134.09375 48.886719 133.800781 C 19.671875 93.535156 90.878906 32.421875 127.21875 22.777344 C 148.660156 17.085938 166.691406 27.441406 168.273438 49.195312 C 171.203125 89.402344 87.046875 164.78125 50.46875 135.429688 M 56.121094 128.761719 C 79.40625 149.195312 133.097656 101.933594 146.675781 83.171875 C 156.566406 69.472656 169.195312 40.820312 146.757812 30.972656 C 123.429688 20.753906 77.722656 62.386719 64.929688 79.734375 C 54.234375 94.21875 43.964844 112.875 56.121094 128.761719 Z M 56.121094 128.761719 " fill-opacity="1" fill-rule="evenodd"/></g></g></g></g><g clip-path="url(#e0694248bb)"><g clip-path="url(#65ca43c350)"><g clip-path="url(#4de82014a2)"><g clip-path="url(#6b7c1ea95a)"><path fill="#540c2c" d="M 133.351562 187.183594 C 114.179688 213.878906 123.757812 254.6875 163.773438 243.980469 C 214.910156 230.308594 257.996094 192.691406 269.433594 140.835938 C 277.726562 103.183594 258.480469 75.714844 219.242188 94.902344 C 215.484375 96.503906 212.15625 98.742188 209.257812 101.621094 C 209.078125 101.851562 208.882812 102.0625 208.664062 102.257812 C 208.449219 102.449219 208.214844 102.617188 207.964844 102.765625 C 207.714844 102.914062 207.453125 103.035156 207.179688 103.132812 C 206.90625 103.230469 206.625 103.300781 206.335938 103.34375 C 206.050781 103.386719 205.761719 103.402344 205.46875 103.386719 C 205.179688 103.375 204.894531 103.335938 204.609375 103.265625 C 204.328125 103.199219 204.054688 103.105469 203.792969 102.984375 C 203.527344 102.863281 203.277344 102.71875 203.039062 102.546875 C 202.808594 102.378906 202.59375 102.191406 202.402344 101.980469 C 202.207031 101.765625 202.035156 101.539062 201.886719 101.292969 C 201.738281 101.046875 201.617188 100.789062 201.523438 100.519531 C 201.425781 100.25 201.355469 99.972656 201.316406 99.691406 C 201.273438 99.40625 201.261719 99.121094 201.28125 98.835938 C 201.296875 98.546875 201.339844 98.265625 201.414062 97.988281 C 201.488281 97.710938 201.585938 97.445312 201.714844 97.1875 C 201.839844 96.929688 201.992188 96.6875 202.167969 96.460938 C 218.289062 82.011719 247.804688 72.253906 266.257812 87.9375 C 298.929688 115.675781 268.691406 179.976562 244.414062 206.445312 C 224.730469 227.855469 165.167969 265.644531 135.074219 251.308594 C 108.960938 238.875 110.964844 203.386719 126.527344 181.707031 C 126.710938 181.476562 126.917969 181.269531 127.144531 181.085938 C 127.371094 180.898438 127.613281 180.734375 127.871094 180.597656 C 128.128906 180.457031 128.398438 180.34375 128.679688 180.257812 C 128.960938 180.171875 129.246094 180.113281 129.539062 180.082031 C 129.828125 180.050781 130.121094 180.050781 130.414062 180.074219 C 130.707031 180.101562 130.992188 180.15625 131.273438 180.238281 C 131.554688 180.324219 131.828125 180.433594 132.085938 180.566406 C 132.347656 180.703125 132.589844 180.863281 132.820312 181.046875 C 133.042969 181.226562 133.246094 181.425781 133.429688 181.648438 C 133.613281 181.867188 133.769531 182.105469 133.90625 182.359375 C 134.042969 182.609375 134.152344 182.875 134.234375 183.148438 C 134.316406 183.421875 134.371094 183.703125 134.398438 183.988281 C 134.425781 184.273438 134.425781 184.558594 134.394531 184.84375 C 134.363281 185.128906 134.304688 185.40625 134.21875 185.679688 C 134.132812 185.953125 134.019531 186.214844 133.882812 186.46875 C 133.742188 186.71875 133.582031 186.953125 133.394531 187.171875 " fill-opacity="1" fill-rule="evenodd"/></g></g></g></g><g clip-path="url(#a2b2e8f665)"><g clip-path="url(#1537455759)"><g clip-path="url(#5b7c65674f)"><g clip-path="url(#6727ced567)"><path fill="#540c2c" d="M 231.824219 216.683594 C 264.898438 242.195312 296.726562 272.210938 329.746094 298.207031 C 301.949219 264.175781 274.222656 230.125 246.574219 196.050781 C 246.394531 195.824219 246.238281 195.585938 246.109375 195.332031 C 245.976562 195.074219 245.871094 194.808594 245.792969 194.53125 C 245.714844 194.253906 245.664062 193.972656 245.644531 193.6875 C 245.621094 193.402344 245.628906 193.113281 245.664062 192.828125 C 245.695312 192.542969 245.761719 192.265625 245.851562 191.992188 C 245.941406 191.71875 246.058594 191.457031 246.203125 191.210938 C 246.34375 190.960938 246.511719 190.726562 246.703125 190.511719 C 246.890625 190.296875 247.101562 190.101562 247.328125 189.925781 C 247.558594 189.746094 247.800781 189.589844 248.058594 189.460938 C 248.316406 189.328125 248.585938 189.222656 248.863281 189.140625 C 249.140625 189.0625 249.425781 189.007812 249.714844 188.984375 C 250.003906 188.960938 250.292969 188.960938 250.582031 188.992188 C 250.871094 189.023438 251.152344 189.082031 251.429688 189.167969 C 251.707031 189.257812 251.972656 189.367188 252.226562 189.503906 C 252.484375 189.644531 252.722656 189.804688 252.945312 189.988281 C 253.171875 190.171875 253.375 190.375 253.558594 190.601562 C 284.246094 228.371094 314.988281 266.105469 345.785156 303.8125 C 348.285156 306.8125 366.269531 323.929688 355.546875 326.078125 C 354.84375 326.28125 353.359375 325.648438 351.304688 324.496094 L 351.128906 324.289062 C 329.015625 311.785156 240.648438 234.648438 226.386719 223.644531 C 226.15625 223.472656 225.945312 223.277344 225.753906 223.066406 C 225.5625 222.851562 225.394531 222.621094 225.25 222.375 C 225.105469 222.128906 224.988281 221.867188 224.894531 221.597656 C 224.800781 221.324219 224.738281 221.046875 224.699219 220.765625 C 224.664062 220.480469 224.65625 220.195312 224.675781 219.910156 C 224.695312 219.625 224.742188 219.34375 224.820312 219.066406 C 224.894531 218.789062 225 218.523438 225.128906 218.269531 C 225.257812 218.015625 225.414062 217.773438 225.589844 217.550781 C 225.769531 217.320312 225.96875 217.109375 226.1875 216.917969 C 226.40625 216.726562 226.644531 216.558594 226.894531 216.414062 C 227.148438 216.269531 227.410156 216.148438 227.6875 216.054688 C 227.960938 215.957031 228.242188 215.890625 228.53125 215.851562 C 228.820312 215.8125 229.109375 215.800781 229.398438 215.816406 C 229.691406 215.832031 229.976562 215.875 230.257812 215.945312 C 230.542969 216.015625 230.8125 216.113281 231.078125 216.238281 C 231.339844 216.363281 231.589844 216.511719 231.824219 216.683594 " fill-opacity="1" fill-rule="evenodd"/></g></g></g></g></svg>